<svg width="24" height="24" fill="#000000" viewBox="0 0 24 24" transform="" id="injected-svg">Boxicons v3.0 https://boxicons.com | License  https://docs.boxicons.com/free<path d="m21,14h-1c0-1.08-.21-2.13-.63-3.11-.4-.95-.98-1.81-1.71-2.54-.54-.54-1.14-.99-1.8-1.35-.45-1.72-2-2.99-3.86-2.99s-3.4,1.28-3.86,2.99c-.66.36-1.26.81-1.8,1.35-.73.73-1.31,1.59-1.71,2.54-.42.99-.63,2.04-.63,3.11h-1c-.55,0-1,.45-1,1v4c0,.55.45,1,1,1h4c.55,0,1-.45,1-1v-4c0-.55-.45-1-1-1h-1c0-.81.16-1.6.47-2.33.3-.71.74-1.36,1.29-1.91.15-.15.33-.27.49-.41.56,1.54,2.02,2.65,3.75,2.65s3.19-1.11,3.75-2.65c.17.13.34.25.49.41.55.55.98,1.19,1.29,1.91.31.74.47,1.53.47,2.34h-1c-.55,0-1,.45-1,1v4c0,.55.45,1,1,1h4c.55,0,1-.45,1-1v-4c0-.55-.45-1-1-1Zm-9-4c-1.1,0-2-.9-2-2s.9-2,2-2,2,.9,2,2-.9,2-2,2Z"></path></svg>